<svg xmlns="http://www.w3.org/2000/svg" width="100" height="100" version="1.1">
  <title>20 cells diameter theta maze</title>
  <desc>20 cells diameter theta maze generated by The Maze Generator Website (http://www.mazegenerator.net/).</desc>
  <g fill="none" stroke="#111" stroke-width="2" stroke-linecap="square">
    <path d="M 140.37258300203047,185.62741699796953 A 32,32 0 1,1 163,195"/>
    <path d="M 144.63119524647567,118.65378243945824 A 48,48 0 0,1 196.94112549695427,129.05887450304573"/>
    <path d="M 207.34621756054176,144.6311952464757 A 48,48 0 0,1 211,163"/>
    <path d="M 207.34621756054176,181.3688047535243 A 48,48 0 0,1 196.94112549695427,196.94112549695427"/>
    <path d="M 181.3688047535243,207.34621756054176 A 48,48 0 0,1 118.65378243945824,144.63119524647567"/>
    <path d="M 138.50826032863421,103.87170991927766 A 64,64 0 0,1 187.49173967136574,103.87170991927765"/>
    <path d="M 208.25483399593904,117.74516600406096 A 64,64 0 0,1 208.25483399593904,208.25483399593904"/>
    <path d="M 163,227 A 64,64 0 0,1 138.50826032863427,222.12829008072237"/>
    <path d="M 117.74516600406096,208.25483399593907 A 64,64 0 0,1 99,163"/>
    <path d="M 103.87170991927766,138.50826032863424 A 64,64 0 0,1 117.74516600406095,117.74516600406096"/>
    <path d="M 106.4314575050762,106.43145750507621 A 80,80 0 0,1 163,83"/>
    <path d="M 207.44561864156816,96.482431015796379 A 80,80 0 0,1 219.5685424949238,106.4314575050762"/>
    <path d="M 241.46282243225843,147.39277423870973 A 80,80 0 0,1 243,163"/>
    <path d="M 241.46282243225843,178.60722576129027 A 80,80 0 0,1 118.55438135843184,229.51756898420365"/>
    <path d="M 96.482431015796379,207.44561864156816 A 80,80 0 0,1 89.089637399097072,132.3853254107928"/>
    <path d="M 67,163.00000000000003 A 96,96 0 0,1 216.33474236988181,83.178917218955661"/>
    <path d="M 242.82108278104434,109.66525763011819 A 96,96 0 0,1 257.15538691871012,181.72867091354831"/>
    <path d="M 251.69243512108352,199.7376095070486 A 96,96 0 0,1 163,259"/>
    <path d="M 126.2623904929514,251.69243512108352 A 96,96 0 0,1 68.844613081289879,181.72867091354834"/>
    <path d="M 53.152048594838192,184.85011606580642 A 112,112 0 0,1 163,51"/>
    <path d="M 242.19595949289334,83.804040507106677 A 112,112 0 0,1 256.12459657788509,100.77613390180454"/>
    <path d="M 266.4745076412641,120.13945557510994 A 112,112 0 0,1 242.19595949289334,242.19595949289331"/>
    <path d="M 205.86054442489007,266.4745076412641 A 112,112 0 0,1 100.77613390180459,256.12459657788509"/>
    <path d="M 83.804040507106691,242.19595949289334 A 112,112 0 0,1 59.5254923587359,205.86054442489012"/>
    <path d="M 163,35 A 128,128 0 0,1 211.9834793427315,44.7434198385553"/>
    <path d="M 269.4281103747258,91.8870101734909 A 128,128 0 0,1 288.5405158916135,138.02843878193556"/>
    <path d="M 288.5405158916135,187.97156121806441 A 128,128 0 0,1 269.4281103747258,234.11298982650905"/>
    <path d="M 253.50966799187808,253.50966799187808 A 128,128 0 0,1 211.9834793427315,281.25658016144473"/>
    <path d="M 138.02843878193556,288.5405158916135 A 128,128 0 0,1 35,163.00000000000003"/>
    <path d="M 37.459484108386505,138.02843878193556 A 128,128 0 0,1 56.571889625274181,91.887010173490964"/>
    <path d="M 72.4903320081219,72.490332008121939 A 128,128 0 0,1 138.02843878193554,37.459484108386519"/>
    <path d="M 121.19900647535741,25.200591654561919 A 144,144 0 0,1 204.80099352464259,25.200591654561919"/>
    <path d="M 230.88113010294364,36.003337933836875 A 144,144 0 0,1 254.35263291956494,51.686494715765875"/>
    <path d="M 274.31350528423411,71.647367080435046 A 144,144 0 0,1 282.73162417156652,82.997886445177272"/>
    <path d="M 289.99666206616314,95.118869897056314 A 144,144 0 0,1 300.79940834543811,121.19900647535744"/>
    <path d="M 307,163 A 144,144 0 0,1 306.30660064079632,177.11446820745672"/>
    <path d="M 304.23308037806521,191.09300637032246 A 144,144 0 0,1 300.79940834543811,204.80099352464256"/>
    <path d="M 296.03865268162531,218.10641426057293 A 144,144 0 0,1 289.99666206616314,230.88113010294367"/>
    <path d="M 282.73162417156652,243.0021135548227 A 144,144 0 0,1 264.82337649086287,264.82337649086281"/>
    <path d="M 254.35263291956494,274.31350528423411 A 144,144 0 0,1 230.8811301029437,289.99666206616314"/>
    <path d="M 218.10641426057293,296.03865268162531 A 144,144 0 0,1 204.80099352464259,300.79940834543811"/>
    <path d="M 177.11446820745675,306.30660064079632 A 144,144 0 0,1 148.88553179254328,306.30660064079632"/>
    <path d="M 134.90699362967752,304.23308037806521 A 144,144 0 0,1 121.19900647535745,300.79940834543811"/>
    <path d="M 107.8935857394271,296.03865268162531 A 144,144 0 0,1 82.997886445177329,282.73162417156652"/>
    <path d="M 71.647367080435075,274.31350528423411 A 144,144 0 0,1 61.176623509137173,264.82337649086287"/>
    <path d="M 51.686494715765917,254.352632919565 A 144,144 0 0,1 43.268375828433477,243.0021135548227"/>
    <path d="M 36.003337933836889,230.8811301029437 A 144,144 0 0,1 19,163.00000000000003"/>
    <path d="M 19.693399359203653,148.88553179254336 A 144,144 0 0,1 36.003337933836875,95.118869897056356"/>
    <path d="M 43.268375828433449,82.997886445177329 A 144,144 0 0,1 95.1188698970563,36.0033379338369"/>
    <path d="M 178.68274245272968,3.7704437324484843 A 160,160 0 1,1 163,3"/>
  </g>
  <g fill="none" stroke="#111" stroke-width="2" stroke-linecap="butt">
    <line x1="163" y1="19" x2="163" y2="35"/>
    <line x1="187.97156121806441" y1="37.459484108386505" x2="178.60722576129027" y2="84.537177567741566"/>
    <line x1="224.22934917841437" y1="15.179274798194115" x2="205.86054442489007" y2="59.525492358735889"/>
    <line x1="199.7376095070486" y1="74.30756487891648" x2="187.49173967136574" y2="103.87170991927765"/>
    <line x1="243.0021135548227" y1="43.268375828433491" x2="216.33474236988181" y2="83.178917218955661"/>
    <line x1="276.13708498984761" y1="49.862915010152392" x2="264.82337649086287" y2="61.176623509137144"/>
    <line x1="253.50966799187808" y1="72.490332008121911" x2="242.19595949289331" y2="83.804040507106677"/>
    <line x1="230.88225099390854" y1="95.117749006091429" x2="196.94112549695427" y2="129.05887450304573"/>
    <line x1="296.03513796840724" y1="74.108762716863637" x2="229.51756898420362" y2="118.55438135843181"/>
    <line x1="236.91036260090294" y1="132.3853254107928" x2="222.12829008072237" y2="138.50826032863427"/>
    <line x1="316.1104537171534" y1="116.55445163928603" x2="300.79940834543811" y2="121.19900647535742"/>
    <line x1="304.23308037806521" y1="134.90699362967752" x2="288.5405158916135" y2="138.02843878193556"/>
    <line x1="257.15538691871012" y1="144.27132908645169" x2="241.46282243225843" y2="147.39277423870973"/>
    <line x1="322.22955626755152" y1="147.31725754727029" x2="306.30660064079632" y2="148.88553179254325"/>
    <line x1="307" y1="163" x2="291" y2="163"/>
    <line x1="211" y1="163" x2="195" y2="163"/>
    <line x1="322.22955626755152" y1="178.68274245272971" x2="306.30660064079632" y2="177.11446820745672"/>
    <line x1="304.23308037806521" y1="191.09300637032246" x2="288.5405158916135" y2="187.97156121806441"/>
    <line x1="272.84795140516178" y1="184.85011606580636" x2="257.15538691871012" y2="181.72867091354831"/>
    <line x1="310.82072520180589" y1="224.22934917841434" x2="296.03865268162531" y2="218.10641426057293"/>
    <line x1="251.69243512108352" y1="199.7376095070486" x2="236.91036260090294" y2="193.61467458920717"/>
    <line x1="296.0351379684073" y1="251.89123728313632" x2="269.4281103747258" y2="234.11298982650905"/>
    <line x1="253.50966799187808" y1="253.50966799187808" x2="242.19595949289334" y2="242.19595949289331"/>
    <line x1="208.25483399593904" y1="208.25483399593904" x2="196.94112549695427" y2="196.94112549695427"/>
    <line x1="243.0021135548227" y1="282.73162417156652" x2="234.11298982650908" y2="269.4281103747258"/>
    <line x1="225.22386609819546" y1="256.12459657788509" x2="216.33474236988181" y2="242.82108278104437"/>
    <line x1="224.2293491784144" y1="310.82072520180589" x2="218.10641426057293" y2="296.03865268162531"/>
    <line x1="193.6146745892072" y1="236.91036260090294" x2="187.49173967136576" y2="222.12829008072237"/>
    <line x1="194.21445152258059" y1="319.92564486451687" x2="187.97156121806447" y2="288.5405158916135"/>
    <line x1="163.00000000000003" y1="307" x2="163" y2="275"/>
    <line x1="163" y1="211" x2="163" y2="195"/>
    <line x1="147.31725754727032" y1="322.22955626755152" x2="148.88553179254328" y2="306.30660064079632"/>
    <line x1="134.90699362967752" y1="304.23308037806521" x2="138.02843878193556" y2="288.5405158916135"/>
    <line x1="141.14988393419361" y1="272.84795140516178" x2="147.39277423870973" y2="241.46282243225843"/>
    <line x1="101.77065082158566" y1="310.82072520180589" x2="107.8935857394271" y2="296.03865268162531"/>
    <line x1="132.38532541079283" y1="236.91036260090294" x2="138.50826032863427" y2="222.12829008072237"/>
    <line x1="61.176623509137158" y1="264.82337649086287" x2="72.490332008121925" y2="253.5096679918781"/>
    <line x1="83.804040507106691" y1="242.19595949289334" x2="117.74516600406096" y2="208.25483399593907"/>
    <line x1="39.318327461962127" y1="264.50292546618334" x2="51.686494715765917" y2="254.352632919565"/>
    <line x1="37.459484108386519" y1="187.97156121806447" x2="68.844613081289893" y2="181.72867091354834"/>
    <line x1="3" y1="163.00000000000003" x2="19" y2="163.00000000000003"/>
    <line x1="67" y1="163.00000000000003" x2="83" y2="163.00000000000003"/>
    <line x1="99" y1="163" x2="115" y2="163"/>
    <line x1="89.089637399097072" y1="132.3853254107928" x2="103.87170991927766" y2="138.50826032863424"/>
    <line x1="21.892597704263181" y1="87.57652210784039" x2="36.003337933836875" y2="95.118869897056342"/>
    <line x1="43.268375828433449" y1="82.997886445177329" x2="69.875403422114914" y2="100.7761339018046"/>
    <line x1="83.178917218955633" y1="109.66525763011822" x2="96.482431015796365" y2="118.55438135843185"/>
    <line x1="106.43145750507618" y1="106.43145750507621" x2="140.37258300203047" y2="140.3725830020305"/>
    <line x1="101.77065082158553" y1="15.179274798194172" x2="114.01652065726843" y2="44.743419838555326"/>
    <line x1="138.50826032863421" y1="103.87170991927766" x2="144.63119524647567" y2="118.65378243945824"/>
  </g>
</svg>